<?xml version="1.0" encoding="UTF-8"?>
<!DOCTYPE svg PUBLIC "-//W3C//DTD SVG 1.1//EN" "http://www.w3.org/Graphics/SVG/1.1/DTD/svg11.dtd">
<!-- Creator: CorelDRAW X7 -->
<svg xmlns="http://www.w3.org/2000/svg" xml:space="preserve" width="180.34mm" height="180.34mm" version="1.1" shape-rendering="geometricPrecision" text-rendering="geometricPrecision" image-rendering="optimizeQuality" fill-rule="evenodd" clip-rule="evenodd"
viewBox="0 0 18034 18034"
 xmlns:xlink="http://www.w3.org/1999/xlink">
 <g id="Inner_x0020_Case_x0020_Outline">
  <metadata id="CorelCorpID_0Corel-Layer"/>
  <path fill="none" stroke="blue" stroke-width="0.99" d="M4901 4286l0 -1c0,1 0,2 0,3 0,180 146,325 325,325 180,0 325,-145 325,-325 0,-5 0,-11 0,-16l-13 -256c36,-66 76,-135 116,-200 63,-102 126,-196 207,-290 81,-95 179,-191 260,-266 81,-76 144,-131 221,-190 78,-59 169,-122 266,-179 97,-57 200,-108 311,-157 111,-49 230,-95 333,-133 104,-37 194,-64 256,-78 62,-14 96,-14 136,-14 41,0 87,0 127,8 39,7 72,23 115,41 43,18 96,38 142,77 47,38 86,95 113,148 27,53 40,102 47,162 7,60 7,132 2,197 -5,65 -16,124 -36,196 -21,72 -52,158 -81,235 -29,78 -57,147 -81,207 -25,60 -48,111 -64,159 -16,48 -27,93 -36,138 -10,46 -18,93 -24,150 -6,57 -10,124 -15,190 -5,65 -12,128 -21,189 -10,61 -22,120 -38,166 -16,46 -37,78 -63,118 -26,40 -57,87 -91,126 -34,40 -72,73 -111,99 -38,27 -78,47 -127,63 -49,17 -107,29 -148,34 -40,5 -63,3 -52,17 10,14 53,45 88,75 36,31 63,62 88,99 25,38 47,83 67,142 20,59 37,132 46,193 10,61 12,110 1,183 -10,72 -32,168 -63,260 -31,93 -71,182 -113,267 -42,85 -87,164 -134,239 -47,76 -97,147 -150,214 -54,67 -110,130 -167,181 -57,51 -114,90 -165,118 -52,27 -98,44 -146,52 -48,8 -98,8 -142,3 -44,-5 -82,-16 -127,-37 -46,-22 -99,-54 -153,-96 -54,-42 -306,-251 -372,-331 -30,-38 -86,-119 -150,-219 -58,-13 -116,-26 -171,-38 -55,-11 -106,-19 -153,-24 -47,-4 -89,-4 -131,0 -43,5 -87,14 -146,31 -59,17 -133,43 -207,69 -54,83 -99,149 -126,181 -66,81 -317,290 -371,332 -55,41 -108,74 -153,95 -46,22 -84,32 -128,37 -43,6 -93,6 -141,-3 -48,-8 -95,-24 -146,-52 -52,-27 -109,-66 -165,-117 -57,-51 -114,-114 -167,-181 -53,-68 -103,-139 -151,-214 -47,-76 -91,-155 -134,-239 -42,-85 -81,-175 -112,-267 -31,-93 -53,-189 -64,-261 -10,-72 -8,-121 1,-182 10,-61 27,-135 47,-194 19,-59 42,-104 67,-141 24,-38 52,-68 87,-99 35,-31 78,-61 89,-75 10,-15 -12,-13 -53,-18 -40,-5 -99,-17 -147,-33 -49,-17 -89,-37 -128,-63 -38,-27 -76,-59 -111,-99 -34,-40 -65,-87 -91,-126 -25,-40 -46,-73 -62,-119 -17,-45 -29,-104 -38,-166 -10,-61 -16,-124 -22,-189 -5,-65 -8,-132 -14,-189 -6,-57 -15,-104 -24,-150 -10,-46 -20,-91 -36,-138 -17,-48 -39,-99 -64,-159 -25,-60 -52,-130 -82,-207 -29,-77 -60,-163 -80,-235 -21,-73 -31,-132 -36,-197 -5,-65 -5,-136 2,-196 6,-60 20,-109 47,-162 26,-53 66,-110 112,-149 46,-39 100,-59 143,-77 43,-18 75,-33 115,-41 39,-8 86,-8 126,-8 41,0 75,0 137,14 62,14 151,42 255,79 104,37 223,84 333,133 111,49 214,100 312,157 97,57 188,120 265,179 77,59 141,114 222,189 81,76 179,171 259,266 81,95 145,188 207,290 43,69 85,141 121,210l-2 260zm-99 2324c74,-26 148,-52 207,-69 59,-17 103,-26 146,-31 0,0 0,0 1,0 41,0 83,0 104,0 21,0 21,0 21,0 1,0 3,0 5,0 47,5 98,13 153,24 55,12 113,25 171,38"/>
  <path fill="none" stroke="blue" stroke-width="0.99" d="M11622 4339l0 -1c0,1 0,2 0,3 0,180 145,325 325,325 179,0 325,-145 325,-325 0,-5 0,-11 -1,-16l-12 -256c35,-66 75,-135 116,-200 62,-102 126,-196 207,-291 80,-94 178,-190 259,-265 81,-76 144,-131 222,-190 77,-59 168,-122 265,-179 97,-57 201,-108 311,-157 111,-49 230,-95 334,-133 104,-37 193,-65 255,-78 62,-14 96,-14 137,-14 40,0 87,0 126,8 40,7 72,23 115,41 43,17 96,38 143,76 46,39 86,96 112,149 27,53 41,102 47,162 7,60 7,131 2,197 -5,65 -15,124 -36,196 -20,72 -51,158 -80,235 -30,78 -57,147 -82,207 -25,60 -47,111 -64,159 -16,48 -26,93 -36,138 -9,46 -18,93 -24,150 -6,57 -9,124 -14,189 -6,66 -12,129 -22,190 -9,61 -21,120 -38,166 -16,46 -37,78 -62,118 -26,40 -57,86 -92,126 -34,40 -72,73 -110,99 -39,26 -79,47 -128,63 -49,16 -107,29 -147,34 -41,5 -63,3 -53,17 10,14 53,45 89,75 35,31 62,61 87,99 25,38 48,83 67,142 20,59 37,132 47,193 9,61 11,110 1,182 -11,73 -33,168 -64,261 -31,93 -70,182 -113,267 -42,84 -86,164 -134,239 -47,76 -97,147 -150,214 -53,67 -110,130 -167,181 -56,51 -113,90 -165,117 -51,28 -98,44 -146,53 -48,8 -98,8 -142,3 -43,-5 -81,-16 -127,-37 -45,-22 -99,-54 -153,-96 -54,-42 -305,-251 -371,-331 -31,-38 -86,-119 -150,-219 -59,-13 -117,-27 -171,-38 -55,-11 -107,-20 -154,-24 -47,-4 -88,-4 -131,0 -43,5 -86,13 -145,31 -59,17 -133,43 -208,69 -53,83 -99,149 -125,181 -66,81 -318,290 -372,332 -54,41 -107,74 -153,95 -45,22 -83,32 -127,37 -44,5 -94,5 -142,-3 -48,-8 -94,-24 -146,-52 -52,-28 -108,-66 -165,-117 -57,-51 -113,-114 -167,-181 -53,-68 -103,-139 -150,-214 -47,-76 -92,-155 -134,-240 -42,-84 -82,-174 -113,-266 -31,-93 -53,-189 -63,-261 -11,-72 -9,-121 1,-182 9,-61 26,-135 46,-194 20,-59 42,-104 67,-141 25,-38 52,-69 88,-99 35,-31 78,-61 88,-75 10,-15 -12,-13 -52,-18 -41,-5 -99,-17 -148,-33 -49,-17 -89,-37 -127,-63 -39,-27 -77,-60 -111,-99 -35,-40 -65,-87 -91,-127 -26,-39 -47,-72 -63,-118 -16,-45 -28,-105 -38,-166 -9,-61 -16,-124 -21,-189 -5,-65 -9,-132 -15,-189 -6,-57 -14,-104 -24,-150 -9,-46 -20,-91 -36,-139 -16,-47 -39,-98 -64,-158 -25,-61 -52,-130 -81,-207 -29,-78 -60,-163 -81,-235 -20,-73 -31,-132 -36,-197 -5,-65 -5,-136 2,-196 7,-60 20,-109 47,-162 27,-53 66,-110 112,-149 47,-39 100,-59 143,-77 43,-18 76,-33 115,-41 40,-8 86,-8 127,-8 40,0 74,0 136,14 62,14 151,42 255,79 104,37 223,84 334,133 111,49 214,100 311,157 97,57 188,120 265,179 78,59 141,114 222,189 81,76 179,171 260,266 80,95 144,188 207,290 42,69 84,141 121,210l-2 260zm-100 2324c75,-26 149,-52 208,-69 59,-18 102,-26 145,-31 0,0 1,0 1,0 42,0 83,0 104,0 21,0 21,0 21,0 2,0 3,0 5,0 47,4 99,13 154,24 54,11 112,25 171,38"/>
  <path fill="none" stroke="blue" stroke-width="0.99" d="M4954 10874l0 -1c0,1 0,2 0,3 0,180 146,325 325,325 180,0 325,-145 325,-325 0,-5 0,-10 0,-16l-13 -256c35,-65 76,-135 116,-200 63,-102 126,-196 207,-290 81,-95 179,-191 260,-266 80,-75 144,-130 221,-190 78,-59 169,-122 266,-179 97,-57 200,-108 311,-157 111,-48 229,-95 333,-132 104,-38 194,-65 256,-79 61,-14 96,-14 136,-14 41,0 87,0 127,8 39,7 72,23 115,41 43,18 96,38 142,77 47,38 86,95 113,148 26,53 40,102 47,162 7,60 7,132 2,197 -6,65 -16,124 -36,196 -21,73 -52,158 -81,236 -29,77 -57,146 -82,206 -25,60 -47,111 -63,159 -17,48 -27,93 -36,139 -10,45 -18,92 -24,149 -6,57 -10,124 -15,190 -5,65 -12,128 -21,189 -10,61 -22,120 -38,166 -17,46 -37,78 -63,118 -26,40 -57,87 -91,126 -34,40 -72,73 -111,99 -39,27 -78,47 -127,63 -49,17 -108,29 -148,34 -40,5 -63,3 -52,17 10,14 53,45 88,76 35,30 63,61 88,98 25,38 47,83 67,142 20,59 37,132 46,193 10,61 11,110 1,183 -10,72 -33,168 -63,260 -31,93 -71,183 -113,267 -42,85 -87,164 -134,239 -47,76 -97,147 -150,214 -54,67 -110,131 -167,181 -57,51 -114,90 -165,118 -52,27 -98,44 -146,52 -48,8 -98,8 -142,3 -44,-5 -82,-16 -127,-37 -46,-21 -99,-54 -153,-96 -54,-42 -306,-251 -372,-331 -31,-37 -86,-119 -150,-219 -58,-13 -116,-26 -171,-37 -55,-11 -107,-20 -153,-25 -47,-4 -89,-4 -131,0 -43,5 -87,14 -146,31 -59,17 -133,43 -207,69 -54,83 -99,149 -126,181 -66,81 -317,290 -371,332 -55,41 -108,74 -153,96 -46,21 -84,31 -128,36 -43,6 -93,6 -141,-3 -49,-8 -95,-24 -147,-52 -51,-27 -108,-66 -165,-117 -56,-51 -113,-114 -166,-181 -53,-67 -103,-139 -151,-214 -47,-75 -92,-155 -134,-239 -42,-85 -81,-174 -112,-267 -31,-93 -54,-189 -64,-261 -10,-72 -8,-121 1,-182 9,-61 27,-135 46,-194 20,-59 43,-103 67,-141 25,-38 53,-68 88,-99 35,-30 78,-61 89,-75 10,-14 -12,-12 -53,-18 -40,-5 -99,-17 -148,-33 -49,-16 -88,-37 -127,-63 -38,-27 -76,-59 -111,-99 -34,-40 -65,-87 -91,-126 -26,-40 -46,-73 -62,-118 -17,-46 -29,-105 -38,-166 -10,-62 -17,-125 -22,-190 -5,-65 -8,-132 -14,-189 -6,-57 -15,-104 -24,-150 -10,-46 -20,-91 -37,-138 -16,-48 -38,-99 -63,-159 -25,-60 -53,-130 -82,-207 -29,-77 -60,-163 -80,-235 -21,-72 -31,-132 -36,-197 -5,-65 -5,-136 1,-196 7,-60 21,-109 47,-162 27,-53 67,-110 113,-149 46,-38 100,-59 143,-77 43,-18 75,-33 115,-41 39,-7 86,-7 126,-7 40,0 75,0 137,13 62,14 151,42 255,79 104,37 222,84 333,133 111,49 214,100 311,157 98,57 189,120 266,179 77,59 141,114 222,189 80,76 178,171 259,266 81,95 145,189 207,290 43,69 85,141 121,210l-2 260zm-99 2324c74,-26 148,-52 207,-69 59,-17 103,-26 146,-31 0,0 0,0 1,0 41,0 83,0 104,0 21,0 21,0 21,0 1,0 3,0 5,0 46,5 98,14 153,25 55,11 113,24 171,37"/>
  <path fill="none" stroke="blue" stroke-width="0.99" d="M11675 10927l0 -1c0,1 0,2 0,3 0,180 145,325 325,325 179,0 325,-145 325,-325 0,-5 -1,-11 -1,-16l-12 -256c35,-66 75,-135 115,-200 63,-102 127,-196 208,-290 80,-95 178,-191 259,-266 81,-76 144,-131 222,-190 77,-59 168,-122 265,-179 97,-57 201,-108 311,-157 111,-49 230,-95 334,-133 104,-37 193,-64 255,-78 62,-14 96,-14 137,-14 40,0 86,0 126,8 39,7 72,23 115,41 43,18 96,38 143,77 46,38 86,95 112,148 27,53 40,102 47,162 7,60 7,132 2,197 -5,65 -15,124 -36,196 -20,72 -51,158 -81,235 -29,78 -56,147 -81,207 -25,60 -47,111 -64,159 -16,48 -26,93 -36,138 -9,46 -18,93 -24,150 -6,57 -9,124 -15,190 -5,65 -12,128 -21,189 -9,61 -22,120 -38,166 -16,46 -37,78 -63,118 -25,40 -56,87 -91,126 -34,40 -72,73 -111,99 -38,27 -78,47 -127,63 -49,17 -107,29 -148,34 -40,5 -62,3 -52,17 10,14 53,45 89,75 35,31 62,62 87,99 25,38 48,83 67,142 20,59 37,132 47,193 9,61 11,110 1,183 -11,72 -33,168 -64,260 -31,93 -71,182 -113,267 -42,85 -86,164 -134,239 -47,76 -97,147 -150,214 -53,67 -110,130 -167,181 -56,51 -113,90 -165,118 -51,27 -98,44 -146,52 -48,8 -98,8 -142,3 -43,-5 -81,-16 -127,-37 -45,-22 -99,-54 -153,-96 -54,-42 -305,-251 -372,-331 -30,-38 -85,-119 -150,-219 -58,-13 -116,-26 -171,-38 -54,-11 -106,-19 -153,-24 -47,-4 -88,-4 -131,0 -43,5 -87,14 -146,31 -58,17 -133,43 -207,69 -53,83 -99,149 -125,181 -67,81 -318,290 -372,332 -54,41 -108,74 -153,95 -46,22 -83,32 -127,37 -44,6 -94,6 -142,-3 -48,-8 -95,-24 -146,-52 -52,-27 -108,-66 -165,-117 -57,-51 -114,-114 -167,-181 -53,-68 -103,-139 -150,-214 -47,-76 -92,-155 -134,-239 -42,-85 -82,-175 -113,-267 -31,-93 -53,-189 -63,-261 -11,-72 -9,-121 0,-182 10,-61 27,-135 47,-194 20,-59 42,-104 67,-141 25,-38 52,-68 88,-99 35,-31 78,-61 88,-75 10,-15 -12,-13 -52,-18 -41,-5 -99,-17 -148,-33 -49,-17 -89,-37 -127,-63 -39,-27 -77,-59 -111,-99 -35,-40 -66,-87 -91,-126 -26,-40 -47,-73 -63,-119 -16,-45 -28,-104 -38,-166 -9,-61 -16,-124 -21,-189 -5,-65 -9,-132 -15,-189 -6,-57 -15,-104 -24,-150 -9,-46 -20,-91 -36,-138 -16,-48 -39,-99 -64,-159 -25,-60 -52,-130 -81,-207 -30,-77 -60,-163 -81,-235 -21,-73 -31,-132 -36,-197 -5,-65 -5,-136 2,-196 7,-60 20,-109 47,-162 26,-53 66,-110 112,-149 47,-39 100,-59 143,-77 43,-18 76,-33 115,-41 40,-8 86,-8 126,-8 41,0 75,0 137,14 62,14 151,42 255,79 104,37 223,84 334,133 111,49 214,100 311,157 97,57 188,120 265,179 78,59 141,114 222,189 81,76 179,171 260,266 80,95 144,188 207,290 42,69 84,141 120,210l-1 260zm-100 2324c74,-26 149,-52 207,-69 59,-17 103,-26 146,-31 0,0 1,0 1,0 42,0 83,0 104,0 21,0 21,0 21,0 2,0 3,0 5,0 47,5 99,13 153,24 55,12 113,25 171,38"/>
 </g>
</svg>
